<?xml version="1.0" encoding="UTF-8"?>
<svg id="Capa_1" data-name="Capa 1" xmlns="http://www.w3.org/2000/svg" viewBox="0 0 394.69 118.12">
  <defs>
    <style>
      .cls-1 {
        fill: #fff;
      }
    </style>
  </defs>
  <g>
    <rect class="cls-1" x="79.85" y="21.14" width="2.09" height="38.28"/>
    <rect class="cls-1" x="79.85" y="59.43" width="2.09" height="45.97"/>
  </g>
  <g>
    <path class="cls-1" d="M101.6,50.52s2.06,2.09,4.94,2.09c1.81,0,3.35-1.01,3.35-2.85,0-4.2-9.38-3.29-9.38-9.24,0-3.02,2.61-5.4,6.25-5.4s5.48,1.95,5.48,1.95l-1.23,2.25s-1.78-1.68-4.25-1.68c-2.06,0-3.51,1.29-3.51,2.83,0,4,9.38,2.93,9.38,9.21,0,2.99-2.3,5.46-6.14,5.46-4.11,0-6.42-2.55-6.42-2.55l1.54-2.06Z"/>
    <path class="cls-1" d="M115.94,35.44h2.69v2.71h-2.69v-2.71ZM115.96,40.92h2.66v13.88h-2.66v-13.88Z"/>
    <path class="cls-1" d="M122.96,51.21s1.56,1.62,3.98,1.62c1.15,0,2.3-.6,2.3-1.73,0-2.55-7.13-2.03-7.13-6.56,0-2.52,2.25-3.95,5.02-3.95,3.05,0,4.47,1.54,4.47,1.54l-1.07,2s-1.23-1.23-3.43-1.23c-1.15,0-2.28.49-2.28,1.7,0,2.5,7.13,1.95,7.13,6.5,0,2.3-1.97,4.03-5.02,4.03-3.4,0-5.27-2.03-5.27-2.03l1.29-1.89Z"/>
    <path class="cls-1" d="M135.65,43.25h-1.81v-2.14h1.89v-4h2.58v4h3.35v2.14h-3.35v6.17c0,2.77,1.95,3.13,2.96,3.13.38,0,.63-.05.63-.05v2.36s-.38.05-.93.05c-1.78,0-5.32-.55-5.32-5.18v-6.47Z"/>
    <path class="cls-1" d="M150.87,40.59c3.92,0,6.01,2.91,6.01,6.5,0,.36-.08,1.15-.08,1.15h-10.12c.14,3.04,2.3,4.58,4.77,4.58s4.11-1.62,4.11-1.62l1.1,1.95s-2.06,1.98-5.38,1.98c-4.36,0-7.35-3.15-7.35-7.27,0-4.42,2.99-7.27,6.94-7.27ZM154.16,46.24c-.08-2.39-1.56-3.54-3.35-3.54-2.03,0-3.67,1.26-4.06,3.54h7.41Z"/>
    <path class="cls-1" d="M160.11,40.92h2.58v1.84c0,.55-.06,1.01-.06,1.01h.06c.66-1.62,2.6-3.18,4.77-3.18,2.33,0,3.7,1.07,4.17,3.15h.06c.77-1.67,2.69-3.15,4.94-3.15,3.13,0,4.58,1.78,4.58,5.32v8.89h-2.66v-8.31c0-1.95-.38-3.48-2.47-3.48-1.95,0-3.4,1.65-3.89,3.54-.14.58-.19,1.21-.19,1.92v6.33h-2.66v-8.31c0-1.81-.27-3.48-2.41-3.48-2.03,0-3.46,1.67-3.98,3.65-.14.55-.17,1.18-.17,1.81v6.33h-2.66v-13.88Z"/>
    <path class="cls-1" d="M192.41,46.13h.6v-.25c0-2.28-1.29-3.04-3.04-3.04-2.14,0-3.87,1.34-3.87,1.34l-1.1-1.95s2-1.65,5.18-1.65c3.51,0,5.49,1.92,5.49,5.43v8.78h-2.47v-1.32c0-.63.06-1.1.06-1.1h-.06s-1.12,2.74-4.44,2.74c-2.39,0-4.72-1.45-4.72-4.22,0-4.58,6.03-4.77,8.36-4.77ZM189.34,52.99c2.25,0,3.7-2.36,3.7-4.42v-.44h-.69c-2,0-5.62.14-5.62,2.63,0,1.12.88,2.22,2.6,2.22Z"/>
    <path class="cls-1" d="M212.07,40.59c3.21,0,4.28,2.19,4.28,2.19h.06s-.06-.41-.06-.93v-6.42h2.66v19.36h-2.52v-1.32c0-.55.03-.93.03-.93h-.06s-1.12,2.58-4.55,2.58c-3.76,0-6.12-2.96-6.12-7.27s2.6-7.27,6.28-7.27ZM212.43,52.83c2.06,0,4-1.45,4-4.99,0-2.47-1.29-4.94-3.92-4.94-2.19,0-4,1.81-4,4.97s1.62,4.96,3.92,4.96Z"/>
    <path class="cls-1" d="M229.15,40.59c3.92,0,6.01,2.91,6.01,6.5,0,.36-.08,1.15-.08,1.15h-10.12c.14,3.04,2.3,4.58,4.77,4.58s4.11-1.62,4.11-1.62l1.1,1.95s-2.06,1.98-5.38,1.98c-4.36,0-7.35-3.15-7.35-7.27,0-4.42,2.99-7.27,6.94-7.27ZM232.44,46.24c-.08-2.39-1.56-3.54-3.35-3.54-2.03,0-3.68,1.26-4.06,3.54h7.41Z"/>
    <path class="cls-1" d="M245.66,35.19h12.29v4.11h-7.49v3.56h5.98v4.11h-5.98v3.7h7.87v4.11h-12.67v-19.61Z"/>
    <path class="cls-1" d="M261.23,40.67h4.55v1.23c0,.47-.06.88-.06.88h.06c.66-1.1,2-2.44,4.5-2.44,2.85,0,5.07,1.32,5.07,5.29v9.16h-4.75v-8.28c0-1.32-.52-1.87-1.56-1.87-1.48,0-2.39.82-2.8,2.03-.19.55-.28,1.18-.28,1.86v6.25h-4.74v-14.13Z"/>
    <path class="cls-1" d="M279.39,44.62h-1.81v-3.7h1.95v-4.06h4.61v4.06h2.96v3.7h-2.96v4.33c0,1.59,1.62,1.81,2.52,1.81.38,0,.63-.03.63-.03v4.11s-.52.08-1.29.08c-2.25,0-6.61-.6-6.61-5.35v-4.97Z"/>
    <path class="cls-1" d="M290.05,40.67h4.75v14.13h-4.75v-14.13ZM290.11,35.19h4.64v3.7h-4.64v-3.7Z"/>
    <path class="cls-1" d="M303.79,40.35c2.85,0,3.7,1.12,3.7,1.12h.06s-.03-.27-.03-.63v-5.65h4.75v19.61h-4.44v-.93c0-.44.03-.8.03-.8h-.05s-1.18,2.06-4.09,2.06c-3.84,0-6.36-3.02-6.36-7.41s2.69-7.38,6.45-7.38ZM304.89,51.21c1.43,0,2.77-1.04,2.77-3.48,0-1.7-.9-3.37-2.77-3.37-1.48,0-2.77,1.21-2.77,3.37s1.12,3.48,2.77,3.48Z"/>
    <path class="cls-1" d="M322.9,46h.19v-.25c0-1.18-.9-1.56-2.08-1.56-1.78,0-3.81,1.34-3.81,1.34l-1.65-3.34s2.44-1.84,5.92-1.84c3.98,0,6.36,2.17,6.36,5.76v8.69h-4.33v-.85c0-.47.05-.88.05-.88h-.05s-1.04,2.06-4,2.06c-2.63,0-4.8-1.76-4.8-4.55,0-4.11,6.01-4.58,8.2-4.58ZM320.82,51.51c1.23,0,2.33-1.34,2.33-2.5v-.3h-.44c-1.51,0-3.24.44-3.24,1.62,0,.66.41,1.18,1.34,1.18Z"/>
    <path class="cls-1" d="M336.61,40.35c2.85,0,3.7,1.12,3.7,1.12h.06s-.03-.27-.03-.63v-5.65h4.75v19.61h-4.44v-.93c0-.44.03-.8.03-.8h-.05s-1.18,2.06-4.09,2.06c-3.84,0-6.36-3.02-6.36-7.41s2.69-7.38,6.45-7.38ZM337.71,51.21c1.43,0,2.77-1.04,2.77-3.48,0-1.7-.9-3.37-2.77-3.37-1.48,0-2.77,1.21-2.77,3.37s1.12,3.48,2.77,3.48Z"/>
    <path class="cls-1" d="M354.93,40.35c4.17,0,6.53,2.91,6.53,6.83,0,.47-.11,1.48-.11,1.48h-8.92c.36,1.73,1.78,2.52,3.29,2.52,2.03,0,3.89-1.43,3.89-1.43l1.76,3.32s-2.28,2.06-6.03,2.06c-5.05,0-7.76-3.65-7.76-7.41,0-4.14,2.8-7.38,7.35-7.38ZM356.68,45.94c0-1.07-.74-2.03-1.86-2.03-1.37,0-2.03.99-2.28,2.03h4.14Z"/>
    <path class="cls-1" d="M364.96,49.86s1.56,1.43,3.59,1.43c.71,0,1.4-.19,1.4-.66,0-1.23-6.61-1.37-6.61-5.98,0-2.66,2.55-4.31,5.82-4.31s4.96,1.62,4.96,1.62l-1.62,3.37s-1.37-1.15-3.35-1.15c-.71,0-1.4.19-1.4.69,0,1.07,6.61,1.23,6.61,5.79,0,2.41-2.14,4.47-5.79,4.47s-5.65-2.09-5.65-2.09l2.03-3.18Z"/>
    <path class="cls-1" d="M104.97,72.21h-5.95v-4.11h16.7v4.11h-5.95v15.5h-4.8v-15.5Z"/>
    <path class="cls-1" d="M122.35,73.25c4.17,0,6.53,2.91,6.53,6.83,0,.47-.11,1.48-.11,1.48h-8.91c.36,1.73,1.78,2.52,3.29,2.52,2.03,0,3.9-1.43,3.9-1.43l1.76,3.32s-2.28,2.06-6.04,2.06c-5.05,0-7.76-3.65-7.76-7.41,0-4.14,2.8-7.38,7.35-7.38ZM124.11,78.84c0-1.07-.74-2.03-1.87-2.03-1.37,0-2.03.99-2.28,2.03h4.14ZM122.49,68.09h4.69l-3.24,4.11h-3.67l2.22-4.11Z"/>
    <path class="cls-1" d="M138.29,73.25c3.84,0,5.62,2.14,5.62,2.14l-2,3.18s-1.37-1.37-3.32-1.37c-2.25,0-3.37,1.7-3.37,3.37s1.15,3.51,3.54,3.51c1.98,0,3.87-1.7,3.87-1.7l1.73,3.32s-2.11,2.33-6.06,2.33c-5.05,0-7.87-3.51-7.87-7.41s2.8-7.38,7.87-7.38Z"/>
    <path class="cls-1" d="M146.56,73.58h4.55v1.23c0,.47-.06.88-.06.88h.06c.66-1.1,2-2.44,4.5-2.44,2.85,0,5.07,1.32,5.07,5.29v9.16h-4.75v-8.28c0-1.32-.52-1.87-1.56-1.87-1.48,0-2.39.82-2.8,2.03-.19.55-.28,1.18-.28,1.86v6.25h-4.74v-14.13Z"/>
    <path class="cls-1" d="M164,73.58h4.75v14.13h-4.75v-14.13ZM164.06,68.09h4.64v3.7h-4.64v-3.7Z"/>
    <path class="cls-1" d="M179.09,73.25c3.84,0,5.62,2.14,5.62,2.14l-2,3.18s-1.37-1.37-3.32-1.37c-2.25,0-3.37,1.7-3.37,3.37s1.15,3.51,3.54,3.51c1.97,0,3.87-1.7,3.87-1.7l1.73,3.32s-2.11,2.33-6.06,2.33c-5.05,0-7.87-3.51-7.87-7.41s2.8-7.38,7.87-7.38Z"/>
    <path class="cls-1" d="M194.5,78.9h.19v-.25c0-1.18-.9-1.56-2.08-1.56-1.78,0-3.81,1.34-3.81,1.34l-1.65-3.34s2.44-1.84,5.92-1.84c3.98,0,6.36,2.17,6.36,5.76v8.69h-4.33v-.85c0-.47.05-.88.05-.88h-.05s-1.04,2.06-4,2.06c-2.63,0-4.8-1.76-4.8-4.55,0-4.11,6.01-4.58,8.2-4.58ZM192.41,84.41c1.23,0,2.33-1.34,2.33-2.5v-.3h-.44c-1.51,0-3.24.44-3.24,1.62,0,.66.41,1.18,1.34,1.18Z"/>
    <path class="cls-1" d="M203.65,82.77s1.56,1.43,3.59,1.43c.71,0,1.4-.19,1.4-.66,0-1.23-6.61-1.37-6.61-5.98,0-2.66,2.55-4.31,5.82-4.31s4.96,1.62,4.96,1.62l-1.62,3.37s-1.37-1.15-3.35-1.15c-.71,0-1.4.19-1.4.69,0,1.07,6.61,1.23,6.61,5.79,0,2.41-2.14,4.47-5.79,4.47s-5.65-2.09-5.65-2.09l2.03-3.18Z"/>
    <path class="cls-1" d="M223.53,81.59s2.22,2.03,4.69,2.03c.99,0,2.06-.39,2.06-1.56,0-2.33-8.83-2.25-8.83-8.28,0-3.62,3.04-6.01,6.94-6.01,4.22,0,6.31,2.22,6.31,2.22l-2.03,3.92s-1.98-1.73-4.33-1.73c-.99,0-2.09.44-2.09,1.54,0,2.47,8.83,2.03,8.83,8.23,0,3.26-2.5,6.09-6.91,6.09s-7.16-2.8-7.16-2.8l2.52-3.65Z"/>
    <path class="cls-1" d="M239.38,68.09h5.21l2.85,8.28c.44,1.26.99,3.24.99,3.24h.06s.55-1.98.99-3.24l2.85-8.28h5.21l1.59,19.61h-4.8l-.6-8.83c-.11-1.48,0-3.29,0-3.29h-.05s-.66,2.06-1.1,3.29l-2.06,5.68h-4.11l-2.06-5.68c-.44-1.23-1.1-3.29-1.1-3.29h-.06s.11,1.81,0,3.29l-.6,8.83h-4.83l1.62-19.61Z"/>
    <path class="cls-1" d="M272.95,83.59h-6.12l-1.18,4.11h-4.94l6.66-19.61h5.05l6.66,19.61h-4.94l-1.21-4.11ZM269.87,72.56s-.44,2.14-.8,3.37l-1.12,3.81h3.87l-1.1-3.81c-.36-1.23-.8-3.37-.8-3.37h-.06Z"/>
  </g>
  <g>
    <path class="cls-1" d="M57.46,73.57c-.07-.19-.16-.38-.24-.57-.17-.4-.32-.81-.51-1.2,0,0,0,0,0,0-.19-.37-.39-.74-.6-1.1-.11-.19-.22-.37-.34-.55-1.74-2.77-4.19-5.11-7.05-6.67l-.47-.26v-9.48h3.14c.79,0,1.43-.64,1.43-1.43v-8.08c0-.79-.64-1.43-1.43-1.43h-23.75c-.79,0-1.43.64-1.43,1.43v8.08c0,.79.64,1.43,1.43,1.43h3.14v9.48l-.47.26c-2.86,1.56-5.31,3.89-7.05,6.67-.11.18-.23.36-.34.55-.21.36-.41.73-.6,1.1,0,0,0,0,0,0-.19.39-.34.8-.51,1.2-.08.19-.17.38-.24.57-.81,2.15-1.24,4.45-1.24,6.76,0,10.58,8.61,19.2,19.2,19.2s19.19-8.61,19.19-19.2c0-2.31-.43-4.61-1.24-6.76ZM29.06,50.9v-5.23h20.9v5.23h-3.12s-.01,0-.02,0-.01,0-.02,0h-14.57s-.02,0-.02,0-.02,0-.02,0h-3.12ZM32.79,65.43c.51-.23.84-.74.84-1.3v-10.38h11.76v10.38c0,.56.33,1.07.84,1.3,2.35,1.05,4.4,2.67,6.01,4.67.12.15.25.3.36.45.11.15.21.3.32.45h-26.82c.11-.15.21-.31.32-.45.12-.16.24-.3.36-.45,1.61-2,3.65-3.61,6.01-4.67ZM39.51,96.67c-9.01,0-16.34-7.33-16.34-16.34,0-1.9.36-3.85,1.02-5.65.03-.08.05-.16.08-.24l.12-.32.1-.26h30.04l.1.26.12.32c.03.08.05.16.08.24.66,1.8,1.02,3.74,1.02,5.65,0,9.01-7.33,16.34-16.34,16.34Z"/>
    <polygon class="cls-1" points="57.11 71.6 57.11 71.6 57.12 71.6 57.11 71.6"/>
    <polygon class="cls-1" points="57.11 71.6 57.11 71.6 57.11 71.6 57.11 71.6"/>
    <path class="cls-1" d="M39.32,34.25c0,3,2.44,5.44,5.44,5.44s5.44-2.44,5.44-5.44-2.44-5.44-5.44-5.44-5.44,2.44-5.44,5.44ZM47.34,34.25c0,1.42-1.16,2.58-2.58,2.58s-2.58-1.16-2.58-2.58,1.16-2.58,2.58-2.58,2.58,1.16,2.58,2.58Z"/>
    <path class="cls-1" d="M30.2,33.48c3,0,5.44-2.44,5.44-5.44s-2.44-5.44-5.44-5.44-5.44,2.44-5.44,5.44,2.44,5.44,5.44,5.44ZM30.2,25.46c1.43,0,2.58,1.16,2.58,2.58s-1.16,2.58-2.58,2.58-2.58-1.16-2.58-2.58,1.16-2.58,2.58-2.58Z"/>
    <path class="cls-1" d="M42.26,23.6c3,0,5.44-2.44,5.44-5.44s-2.44-5.44-5.44-5.44-5.44,2.44-5.44,5.44,2.44,5.44,5.44,5.44ZM42.26,15.58c1.43,0,2.58,1.16,2.58,2.58s-1.16,2.58-2.58,2.58-2.58-1.16-2.58-2.58,1.16-2.58,2.58-2.58Z"/>
    <path class="cls-1" d="M33.4,80.52c-.12-.08-.26-.16-.4-.22-.14-.06-.28-.11-.44-.12-.15-.03-.3-.05-.45-.05-.62,0-1.22.25-1.64.68-.44.42-.69,1.03-.69,1.65s.25,1.21.69,1.65c.44.43,1.03.68,1.65.68.16,0,.3-.02.45-.05.16-.03.3-.08.44-.14.14-.06.28-.12.4-.22.12-.08.25-.17.36-.28.43-.44.68-1.04.68-1.65s-.25-1.21-.68-1.65c-.11-.11-.23-.22-.36-.3Z"/>
    <path class="cls-1" d="M46.69,79.23c-.12-.08-.26-.16-.4-.22s-.28-.09-.44-.12c-.15-.03-.3-.05-.45-.05s-.3.02-.45.05c-.15.03-.29.06-.43.12-.14.06-.28.14-.4.22-.12.08-.25.19-.36.3-.44.42-.68,1.03-.68,1.65,0,.14.02.3.05.45.03.16.08.3.14.43.05.14.12.28.2.4.09.12.19.25.3.36.11.11.23.2.36.28.12.09.26.16.4.22.14.06.28.11.43.14.14.03.3.05.45.05s.31-.02.45-.05c.16-.03.3-.08.44-.14s.28-.12.4-.22c.14-.08.25-.17.36-.28.11-.11.2-.23.29-.36.08-.12.16-.26.22-.4.05-.14.09-.28.12-.43.03-.16.05-.31.05-.45,0-.62-.25-1.23-.68-1.65-.11-.11-.22-.22-.36-.3Z"/>
    <path class="cls-1" d="M42.29,88.51c-.06-.14-.12-.28-.22-.4-.08-.12-.17-.25-.28-.36-.44-.43-1.06-.68-1.68-.68-.14,0-.28.01-.42.04-.15.03-.31.08-.45.14-.14.06-.26.12-.39.22-.14.08-.25.17-.36.28-.11.11-.2.23-.3.36-.08.12-.15.26-.22.4-.05.14-.09.3-.12.44-.03.16-.05.31-.05.45,0,.62.25,1.23.68,1.66.11.11.22.2.36.28.12.09.25.16.39.22.14.06.3.11.45.14.14.03.3.05.45.05.61,0,1.21-.25,1.65-.68.43-.44.68-1.04.68-1.66,0-.14-.02-.3-.05-.45-.03-.14-.08-.3-.14-.44Z"/>
  </g>
</svg>